<svg width="526" height="526" viewBox="0 0 526 526" fill="none" xmlns="http://www.w3.org/2000/svg">
<path d="M350.666 219.167H372.583V372.583H350.666V394.5H328.749V416.417H306.833V438.333H284.916V460.25H262.999V482.167H241.083V504.083H109.583V482.167H87.666V460.25H65.7494V438.333H43.8327V416.417H21.916V306.833H43.8327V284.917H65.7494V263H87.666V241.083H109.583V306.833H87.666V328.75H65.7494V394.5H87.666V416.417H109.583V438.333H131.499V460.25H219.166V438.333H241.083V416.417H262.999V394.5H284.916V372.583H306.833V350.667H328.749V241.083H306.833V219.167H284.916V197.25H306.833V175.333H328.749V197.25H350.666V219.167Z" fill="white" fill-opacity="0.3"/>
<path d="M504.083 109.583V219.167H482.166V241.083H460.249V263H438.333V284.917H416.416V219.167H438.333V197.25H460.249V131.5H438.333V109.583H416.416V87.6667H394.499V65.75H306.833V87.6667H284.916V109.583H262.999V131.5H241.083V153.417H219.166V175.333H197.249V284.917H219.166V306.833H241.083V328.75H219.166V350.667H197.249V328.75H175.333V306.833H153.416V153.417H175.333V131.5H197.249V109.583H219.166V87.6667H241.083V65.75H262.999V43.8333H284.916V21.9167H416.416V43.8333H438.333V65.75H460.249V87.6667H482.166V109.583H504.083Z" fill="#32CC8C" fill-opacity="0.33"/>
</svg>
